# xmcd CD database file
#
# Track frame offsets:
#	150
#	1470
#	33734
#	66418
#	99846
#	131965
#	164772
#	196231
#	230112
#	284153
#
# Disc length: 4440 seconds
#
# Revision: 0
# Processed by: cddbd v1.5.1PL2 Copyright (c) Steve Scherf et al.
# Submitted via: CDex 1.51
#
DISCID=9c11560a
DTITLE=The Jazz Crusaders - At The Lighthouse
DYEAR=1962
DGENRE=Jazz
TTITLE0=Introduction
TTITLE1=Congolese Sermon
TTITLE2=Cathy's Dilemma
TTITLE3=Blues For Ramona
TTITLE4=Weather Beat
TTITLE5=Scandalizing
TTITLE6=Appointment In Ghana
TTITLE7=Penny Blue
TTITLE8=Boopie
TTITLE9=Data
EXTD=YEAR: 1962
EXTT0=
EXTT1=
EXTT2=
EXTT3=
EXTT4=
EXTT5=
EXTT6=
EXTT7=
EXTT8=
EXTT9=
PLAYORDER=
